# File created by Blade
# Date/Time:  Tue Jan 27 18:35:12 2015
#---------------------------------------------------------
:version 1.10
:name HOM
:units
  mass 1.0
  length 1.000000
  angle deg
:documentation
     Acclaim Skeleton File
:root
   axis xyz
   order TX TY TZ RX RY RZ
   position 0.000000 0.000000 0.000000
   orientation 0 0 0
:bonedata
   begin
      id 1
      name Spine_dum
      direction 0.000000 1.000000 0.000000
      length 5.195262
      axis 0.0 0.0 0.0 xyz
   end
   begin
      id 2
      name LeftUpLeg_dum
      direction 1.000000 0.000000 0.000000
      length 3.351363
      axis 0.0 0.0 0.0 xyz
   end
   begin
      id 3
      name RightUpLeg_dum
      direction -1.000000 0.000000 0.000000
      length 3.351363
      axis 0.0 0.0 0.0 xyz
   end
   begin
      id 4
      name Spine
      direction 0.000000 1.000000 0.000000
      length 0.000000
      axis 0.0 0.0 0.0 xyz
      dof rx ry rz
   end
   begin
      id 5
      name Spine_dum1
      direction 0.000000 1.000000 0.000000
      length 15.653875
      axis 0.0 0.0 0.0 xyz
   end
   begin
      id 6
      name Spine_dum2
      direction 0.000000 1.000000 0.000000
      length 10.329768
      axis 0.0 0.0 0.0 xyz
   end
   begin
      id 7
      name Spine_dum3
      direction 0.000000 1.000000 0.000000
      length 10.329768
      axis 0.0 0.0 0.0 xyz
   end
   begin
      id 8
      name Head
      direction 0.000000 1.000000 0.000000
      length 4.527550
      axis 0.0 0.0 0.0 xyz
      dof rx ry rz
   end
   begin
      id 9
      name LeftShoulder
      direction 1.000000 0.000000 0.000000
      length 6.996006
      axis 0.0 0.0 -90.0 xyz
      dof rx ry rz
   end
   begin
      id 10
      name LeftArm
      direction 1.000000 0.000000 0.000000
      length 10.209302
      axis 0.0 0.0 -90.0 xyz
      dof rx ry rz
   end
   begin
      id 11
      name LeftForeArm
      direction 1.000000 0.000000 0.000000
      length 8.563163
      axis 0.0 0.0 -90.0 xyz
      dof ry rz rx
   end
   begin
      id 12
      name LeftHand
      direction 0.000000 0.000000 0.000000
      length 0.000000
      axis 0.0 0.0 -90.0 xyz
      dof rx ry rz
   end
   begin
      id 13
      name LeftHand_dum1
      direction 0.000000 0.000000 0.000000
      length 0.000000
      axis 0.0 0.0 -90.0 xyz
   end
   begin
      id 14
      name LeftHand_dum2
      direction 1.000000 0.000000 0.000000
      length 3.937000
      axis 0.0 0.0 -90.0 xyz
   end
   begin
      id 15
      name LeftHandThumb1
      direction 0.000000 0.000000 1.000000
      length 3.937000
      axis 0.0 0.0 -90.0 xyz
      dof rx rz ry
   end
   begin
      id 16
      name RightShoulder
      direction -1.000000 0.000000 0.000000
      length 6.996006
      axis 0.0 0.0 90.0 xyz
      dof rx ry rz
   end
   begin
      id 17
      name RightArm
      direction -1.000000 0.000000 0.000000
      length 10.209302
      axis 0.0 0.0 90.0 xyz
      dof rx ry rz
   end
   begin
      id 18
      name RightForeArm
      direction -1.000000 0.000000 0.000000
      length 8.563163
      axis 0.0 0.0 90.0 xyz
      dof ry rz rx
   end
   begin
      id 19
      name RightHand
      direction 0.000000 0.000000 0.000000
      length 0.000000
      axis 0.0 0.0 90.0 xyz
      dof rx ry rz
   end
   begin
      id 20
      name RightHand_dum1
      direction 0.000000 0.000000 0.000000
      length 0.000000
      axis 0.0 0.0 90.0 xyz
   end
   begin
      id 21
      name RightHand_dum2
      direction -1.000000 0.000000 0.000000
      length 3.937000
      axis 0.0 0.0 90.0 xyz
   end
   begin
      id 22
      name RightHandThumb1
      direction 0.000000 0.000000 1.000000
      length 3.937000
      axis 0.0 0.0 90.0 xyz
      dof rx rz ry
   end
   begin
      id 23
      name LeftUpLeg
      direction 0.000000 -1.000000 0.000000
      length 16.346831
      axis 0.0 0.0 0.0 xyz
      dof rx ry rz
   end
   begin
      id 24
      name LeftLeg
      direction 0.000000 -1.000000 0.000000
      length 13.959795
      axis 0.0 0.0 0.0 xyz
      dof rx ry rz
   end
   begin
      id 25
      name LeftFoot
      direction 0.000000 -0.258819 0.965926
      length 5.165550
      axis 15.0 0.0 0.0 xyz
      dof rx ry rz
   end
   begin
      id 26
      name LeftToeBase
      direction 0.000000 0.000000 1.000000
      length 2.952750
      axis 0.0 0.0 0.0 xyz
      dof rx ry rz
   end
   begin
      id 27
      name RightUpLeg
      direction 0.000000 -1.000000 0.000000
      length 16.346831
      axis 0.0 0.0 0.0 xyz
      dof rx ry rz
   end
   begin
      id 28
      name RightLeg
      direction 0.000000 -1.000000 0.000000
      length 13.959795
      axis 0.0 0.0 0.0 xyz
      dof rx ry rz
   end
   begin
      id 29
      name RightFoot
      direction 0.000000 -0.258819 0.965926
      length 5.165550
      axis 15.0 0.0 0.0 xyz
      dof rx ry rz
   end
   begin
      id 30
      name RightToeBase
      direction 0.000000 0.000000 1.000000
      length 2.952750
      axis 0.0 0.0 0.0 xyz
      dof rx ry rz
   end
:hierarchy
   begin
      root Spine_dum LeftUpLeg_dum RightUpLeg_dum
      Spine_dum Spine
      LeftUpLeg_dum LeftUpLeg
      RightUpLeg_dum RightUpLeg
      Spine Spine_dum1 Spine_dum2 Spine_dum3
      Spine_dum1 Head
      Spine_dum2 LeftShoulder
      Spine_dum3 RightShoulder
      LeftShoulder LeftArm
      LeftArm LeftForeArm
      LeftForeArm LeftHand
      LeftHand LeftHand_dum1 LeftHand_dum2
      LeftHand_dum1 LeftHandThumb1
      RightShoulder RightArm
      RightArm RightForeArm
      RightForeArm RightHand
      RightHand RightHand_dum1 RightHand_dum2
      RightHand_dum1 RightHandThumb1
      LeftUpLeg LeftLeg
      LeftLeg LeftFoot
      LeftFoot LeftToeBase
      RightUpLeg RightLeg
      RightLeg RightFoot
      RightFoot RightToeBase
   end

# File created by Blade
# Date/Time:  Tue Jan 27 18:35:03 2015
# Frame Rate: 120.000 fps
#------------------------------------------------------
:FULLY-SPECIFIED
:DEGREES
225
root -3.371388 31.303313 -1.921222 -8.779387 6.544123 -13.780346
Spine 17.311912 -6.459198 2.637744
Head -4.984504 2.105818 13.461475
LeftShoulder -15.745802 14.255850 17.113219
LeftArm 23.231174 -39.520118 -73.620379
LeftForeArm 125.992724 -0.000000 133.843650
LeftHand 7.533869 -0.000000 -5.602001
LeftHandThumb1 -26.253704 0.000000 33.147579
RightShoulder -12.436057 -1.883976 -9.462152
RightArm 11.811561 -28.916583 73.985786
RightForeArm -26.065999 0.000000 33.252455
RightHand -15.517683 -0.000000 8.979079
RightHandThumb1 -24.326973 -0.000000 -32.862282
LeftUpLeg -6.903601 5.178237 6.356889
LeftLeg 37.187917 -0.000000 -0.000000
LeftFoot -33.831822 18.398828 -19.753631
LeftToeBase 9.025958 -0.000000 -0.000000
RightUpLeg -113.205096 -8.324962 17.708933
RightLeg 94.815519 -0.000000 -0.000000
RightFoot -7.064935 -9.549555 16.296748
RightToeBase 3.473856 -0.000000 -0.000000
226
root -3.370591 31.294918 -1.929789 -8.712459 6.423824 -13.791353
Spine 17.290795 -6.407140 2.682557
Head -4.998447 2.369661 13.492361
LeftShoulder -15.825467 14.352521 17.091311
LeftArm 23.244558 -39.490752 -73.439216
LeftForeArm 125.891700 -0.000000 134.109121
LeftHand 7.492393 -0.000000 -5.605737
LeftHandThumb1 -26.253704 0.000000 33.147579
RightShoulder -12.423078 -1.830509 -9.469953
RightArm 11.961786 -29.183353 73.932744
RightForeArm -25.928997 -0.000000 33.174971
RightHand -15.647440 -0.000000 8.721470
RightHandThumb1 -24.326973 -0.000000 -32.862282
LeftUpLeg -7.005256 5.132448 6.334911
LeftLeg 37.277086 -0.000000 -0.000000
LeftFoot -33.888505 18.601401 -19.714049
LeftToeBase 9.008125 -0.000000 -0.000000
RightUpLeg -113.004471 -8.274701 17.556934
RightLeg 94.843373 -0.000000 -0.000000
RightFoot -7.229781 -9.546831 16.384655
RightToeBase 3.322941 -0.000000 -0.000000
227
root -3.369264 31.288105 -1.939087 -8.647520 6.291812 -13.801196
Spine 17.272300 -6.346270 2.732665
Head -4.994362 2.598327 13.508816
LeftShoulder -15.888898 14.427096 17.031524
LeftArm 23.260796 -39.532409 -73.201818
LeftForeArm 125.869640 -0.000000 134.427590
LeftHand 7.465654 0.000000 -5.669595
LeftHandThumb1 -26.253704 0.000000 33.147579
RightShoulder -12.411762 -1.798269 -9.512962
RightArm 12.137674 -29.513137 73.879318
RightForeArm -25.864436 -0.000000 33.064792
RightHand -15.509578 0.000000 9.193821
RightHandThumb1 -24.326973 -0.000000 -32.862282
LeftUpLeg -7.097033 5.103913 6.319057
LeftLeg 37.351384 -0.000000 -0.000000
LeftFoot -33.941343 18.761373 -19.734305
LeftToeBase 8.995546 -0.000000 -0.000000
RightUpLeg -112.788455 -8.215937 17.414383
RightLeg 94.879588 -0.000000 -0.000000
RightFoot -7.473320 -9.597368 16.332093
RightToeBase 3.359753 -0.000000 -0.000000
228
root -3.369312 31.281935 -1.949061 -8.590442 6.148117 -13.822389
Spine 17.274131 -6.303132 2.788307
Head -5.011469 2.839588 13.531482
LeftShoulder -15.999089 14.485914 16.964932
LeftArm 23.272018 -39.535821 -72.977561
LeftForeArm 125.861793 -0.000000 134.784597
LeftHand 7.502912 -0.000000 -5.910674
LeftHandThumb1 -26.253704 0.000000 33.147579
RightShoulder -12.393694 -1.734796 -9.582896
RightArm 12.302184 -29.839179 73.894315
RightForeArm -26.035175 -0.000000 32.887656
RightHand -15.509704 -0.000000 9.224225
RightHandThumb1 -24.326973 -0.000000 -32.862282
LeftUpLeg -7.197969 5.101356 6.322265
LeftLeg 37.462637 -0.000000 -0.000000
LeftFoot -33.977043 18.916179 -19.744389
LeftToeBase 8.867964 -0.000000 -0.000000
RightUpLeg -112.557983 -8.148509 17.293181
RightLeg 94.907438 -0.000000 -0.000000
RightFoot -7.644137 -9.666168 16.352819
RightToeBase 3.295696 -0.000000 -0.000000
229
root -3.369305 31.277255 -1.958049 -8.556293 6.007135 -13.828545
Spine 17.301952 -6.238740 2.819434
Head -5.016536 3.041408 13.585208
LeftShoulder -16.076992 14.524318 16.899526
LeftArm 23.272063 -39.596277 -72.716249
LeftForeArm 125.931723 0.000000 135.148983
LeftHand 7.490496 -0.000000 -5.856313
LeftHandThumb1 -26.253704 0.000000 33.147579
RightShoulder -12.388060 -1.610396 -9.663516
RightArm 12.386987 -30.155730 73.951805
RightForeArm -26.225465 0.000000 32.704166
RightHand -15.493863 -0.000000 9.451234
RightHandThumb1 -24.326973 -0.000000 -32.862282
LeftUpLeg -7.250645 5.121657 6.321652
LeftLeg 37.533024 -0.000000 -0.000000
LeftFoot -34.093119 18.975293 -19.869714
LeftToeBase 9.014930 -0.000000 -0.000000
RightUpLeg -112.304170 -8.089108 17.122181
RightLeg 94.951309 -0.000000 -0.000000
RightFoot -7.727718 -9.752920 16.472775
RightToeBase 3.183005 -0.000000 -0.000000
230
root -3.370976 31.274019 -1.965532 -8.536149 5.870542 -13.849765
Spine 17.336964 -6.171472 2.851727
Head -4.991691 3.256935 13.667017
LeftShoulder -16.183735 14.616088 16.880219
LeftArm 23.336468 -39.531499 -72.587268
LeftForeArm 125.810191 -0.000000 135.552964
LeftHand 7.500695 -0.000000 -5.984552
LeftHandThumb1 -26.253704 0.000000 33.147579
RightShoulder -12.372713 -1.531530 -9.721365
RightArm 12.502144 -30.423376 73.986662
RightForeArm -26.406422 -0.000000 32.521189
RightHand -15.455613 -0.000000 9.815148
RightHandThumb1 -24.326973 -0.000000 -32.862282
LeftUpLeg -7.285638 5.183388 6.347124
LeftLeg 37.589763 -0.000000 -0.000000
LeftFoot -34.114245 19.051874 -19.848331
LeftToeBase 9.047222 -0.000000 -0.000000
RightUpLeg -112.043607 -8.044196 16.961894
RightLeg 95.022230 -0.000000 -0.000000
RightFoot -7.836321 -9.833661 16.426171
RightToeBase 3.356118 -0.000000 -0.000000
231
root -3.371732 31.270923 -1.974017 -8.507890 5.742310 -13.867768
Spine 17.363718 -6.129171 2.878094
Head -4.962827 3.467414 13.744392
LeftShoulder -16.316765 14.688333 16.822505
LeftArm 23.424918 -39.520023 -72.424682
LeftForeArm 125.866435 -0.000000 135.934660
LeftHand 7.553693 -0.000000 -5.867784
LeftHandThumb1 -26.253704 0.000000 33.147579
RightShoulder -12.326449 -1.470059 -9.791551
RightArm 12.611382 -30.681403 74.021208
RightForeArm -26.517408 0.000000 32.343830
RightHand -15.264735 -0.000000 9.891955
RightHandThumb1 -24.326973 -0.000000 -32.862282
LeftUpLeg -7.330526 5.237949 6.363607
LeftLeg 37.642562 -0.000000 -0.000000
LeftFoot -34.131945 19.154366 -19.820227
LeftToeBase 8.954957 -0.000000 -0.000000
RightUpLeg -111.798494 -8.003560 16.805391
RightLeg 95.095792 -0.000000 -0.000000
RightFoot -7.909186 -9.896948 16.548974
RightToeBase 3.320120 -0.000000 -0.000000
232
root -3.373494 31.267970 -1.983324 -8.463196 5.624323 -13.887481
Spine 17.366193 -6.068080 2.909954
Head -4.924859 3.661261 13.820004
LeftShoulder -16.422420 14.755120 16.786570
LeftArm 23.522179 -39.471285 -72.276614
LeftForeArm 125.826598 -0.000000 136.316951
LeftHand 7.541435 0.000000 -5.895335
LeftHandThumb1 -26.253704 0.000000 33.147579
RightShoulder -12.290092 -1.395801 -9.853648
RightArm 12.677757 -30.998146 74.055336
RightForeArm -26.863730 -0.000000 32.197054
RightHand -15.365894 -0.000000 9.882784
RightHandThumb1 -24.326973 -0.000000 -32.862282
LeftUpLeg -7.392369 5.298325 6.384464
LeftLeg 37.689634 -0.000000 -0.000000
LeftFoot -34.154275 19.221424 -19.810089
LeftToeBase 8.969503 -0.000000 -0.000000
RightUpLeg -111.563636 -7.972622 16.587388
RightLeg 95.160696 -0.000000 -0.000000
RightFoot -7.887284 -9.882609 16.705676
RightToeBase 3.156403 -0.000000 -0.000000
233
root -3.373724 31.265747 -1.989503 -8.441239 5.530987 -13.899537
Spine 17.382172 -6.015984 2.924854
Head -4.867381 3.812864 13.914430
LeftShoulder -16.528795 14.835597 16.777932
LeftArm 23.662628 -39.378692 -72.227749
LeftForeArm 125.825638 0.000000 136.707523
LeftHand 7.518165 -0.000000 -5.813854
LeftHandThumb1 -26.253704 0.000000 33.147579
RightShoulder -12.259354 -1.358522 -9.892878
RightArm 12.760459 -31.321715 74.045723
RightForeArm -27.134485 -0.000000 32.059859
RightHand -15.321258 0.000000 9.956692
RightHandThumb1 -24.326973 -0.000000 -32.862282
LeftUpLeg -7.418871 5.346767 6.396584
LeftLeg 37.708373 -0.000000 -0.000000
LeftFoot -34.073911 19.344604 -19.655116
LeftToeBase 8.636059 -0.000000 -0.000000
RightUpLeg -111.347799 -7.985188 16.386483
RightLeg 95.268121 -0.000000 -0.000000
RightFoot -7.775377 -9.908259 16.524273
RightToeBase 3.223062 -0.000000 -0.000000
234
root -3.375061 31.263867 -2.000909 -8.376339 5.430148 -13.923807
Spine 17.357092 -5.965580 2.958192
Head -4.794376 3.964770 14.002509
LeftShoulder -16.634789 14.905842 16.769764
LeftArm 23.787128 -39.244875 -72.172682
LeftForeArm 125.479598 -0.000000 137.119463
LeftHand 7.588165 -0.000000 -5.998713
LeftHandThumb1 -26.253704 0.000000 33.147579
RightShoulder -12.212579 -1.315080 -9.917836
RightArm 12.853734 -31.648111 74.007424
RightForeArm -27.381657 -0.000000 31.910564
RightHand -15.207908 -0.000000 10.073711
RightHandThumb1 -24.326973 -0.000000 -32.862282
LeftUpLeg -7.497147 5.403844 6.425356
LeftLeg 37.746014 -0.000000 -0.000000
LeftFoot -34.194639 19.289105 -19.816614
LeftToeBase 8.864611 -0.000000 -0.000000
RightUpLeg -111.169473 -7.972004 16.199532
RightLeg 95.330858 -0.000000 -0.000000
RightFoot -7.646256 -9.950863 16.382785
RightToeBase 3.058520 -0.000000 -0.000000
235
root -3.376484 31.262527 -2.009891 -8.320681 5.355118 -13.936259
Spine 17.326026 -5.913213 2.968148
Head -4.685708 4.090385 14.116806
LeftShoulder -16.702893 14.979185 16.800197
LeftArm 23.879091 -39.122285 -72.128439
LeftForeArm 125.426245 -0.000000 137.470753
LeftHand 7.648978 0.000000 -5.710106
LeftHandThumb1 -26.253704 0.000000 33.147579
RightShoulder -12.170331 -1.356341 -9.920830
RightArm 12.981409 -31.972450 73.924517
RightForeArm -27.528920 -0.000000 31.817466
RightHand -15.250367 -0.000000 9.860345
RightHandThumb1 -24.326973 -0.000000 -32.862282
LeftUpLeg -7.554962 5.466714 6.438072
LeftLeg 37.744112 -0.000000 -0.000000
LeftFoot -34.111465 19.375646 -19.664572
LeftToeBase 8.651292 -0.000000 -0.000000
RightUpLeg -111.003410 -7.981476 15.985103
RightLeg 95.405142 -0.000000 -0.000000
RightFoot -7.501249 -10.003144 16.240967
RightToeBase 3.090671 -0.000000 -0.000000
236
root -3.376904 31.263913 -2.019009 -8.273316 5.295635 -13.954270
Spine 17.308002 -5.880528 2.984313
Head -4.599179 4.188199 14.216648
LeftShoulder -16.789433 15.073122 16.823308
LeftArm 24.007320 -38.967937 -72.150290
LeftForeArm 125.118566 -0.000000 137.773576
LeftHand 7.538603 -0.000000 -5.385868
LeftHandThumb1 -26.253704 0.000000 33.147579
RightShoulder -12.148755 -1.412100 -9.894501
RightArm 13.159596 -32.294638 73.774494
RightForeArm -27.586543 -0.000000 31.713523
RightHand -15.294038 -0.000000 9.824976
RightHandThumb1 -24.326973 -0.000000 -32.862282
LeftUpLeg -7.596038 5.484424 6.461213
LeftLeg 37.738483 -0.000000 -0.000000
LeftFoot -34.212561 19.298582 -19.824692
LeftToeBase 8.918346 -0.000000 -0.000000
RightUpLeg -110.828191 -8.018753 15.786689
RightLeg 95.482537 -0.000000 -0.000000
RightFoot -7.394920 -9.976885 16.134849
RightToeBase 3.371122 -0.000000 -0.000000
237
root -3.377481 31.265497 -2.028700 -8.217455 5.236419 -13.960530
Spine 17.276939 -5.830602 2.987075
Head -4.498736 4.259834 14.311591
LeftShoulder -16.835092 15.160268 16.865114
LeftArm 24.110657 -38.833327 -72.183976
LeftForeArm 124.815106 -0.000000 138.049696
LeftHand 7.556576 0.000000 -5.058805
LeftHandThumb1 -26.253704 0.000000 33.147579
RightShoulder -12.134984 -1.473307 -9.842346
RightArm 13.307256 -32.591771 73.604663
RightForeArm -27.756687 0.000000 31.652460
RightHand -15.330996 -0.000000 9.854980
RightHandThumb1 -24.326973 -0.000000 -32.862282
LeftUpLeg -7.640137 5.523879 6.468606
LeftLeg 37.702596 -0.000000 -0.000000
LeftFoot -34.094943 19.411373 -19.647641
LeftToeBase 8.637862 -0.000000 -0.000000
RightUpLeg -110.671281 -8.044965 15.585575
RightLeg 95.541316 -0.000000 -0.000000
RightFoot -7.285455 -10.002893 16.028225
RightToeBase 3.170096 -0.000000 -0.000000
